<svg xmlns="http://www.w3.org/2000/svg" viewBox="0 0 721 56" width="721" height="56"><g xmlns="http://www.w3.org/2000/svg" transform="matrix(0 1 -1 0 721 -0)"><g clip-path="url(#clip0_48_3214)" fill="#00342B"><g clip-path="url(#clip1_48_3214)" fill="#00342B"><path d="M54.4593 658.726L54.4593 669.208L41.0564 675.374C40.1317 679.535 39.5157 684.391 39.5157 689.863C39.5157 695.489 40.1318 700.422 41.1334 704.661L54.4593 710.827V721L1.54053 696.337L1.54053 683.389L54.4593 658.726ZM32.3523 679.381L9.32062 690.017L32.3523 700.653C31.8897 697.262 31.6587 693.639 31.6587 689.863C31.6587 686.24 31.8897 682.695 32.3523 679.381Z" fill="#00342B"></path><path d="M46.3713 605.161H54.8444C54.8444 611.404 53.2268 614.641 48.3739 617.878C54.3054 622.039 55.923 628.822 55.923 634.371C55.923 643.928 48.1429 651.712 39.0538 651.712C31.7357 651.712 25.2653 647.242 21.491 640.537C18.4098 642.386 15.1746 643.697 12.6329 643.697C3.85124 643.697 0 636.221 0 629.207C0 620.884 4.39084 615.642 12.6329 614.795L14.173 623.889C10.5527 624.275 9.0891 626.356 9.0891 628.822C9.0891 631.904 10.7837 633.832 12.9409 633.832C15.0976 633.832 17.9478 631.827 21.953 628.667L34.432 618.725C27.7305 615.257 25.4193 611.635 25.4193 605.7H33.8924C33.8924 609.014 35.202 610.633 40.4398 613.022C44.6767 610.017 46.3713 608.321 46.3713 605.161ZM42.8281 623.119L28.1925 635.295C30.0411 639.381 34.124 641.847 38.2832 641.847C43.6751 641.847 47.6039 638.301 47.6039 632.29C47.6039 627.974 45.6783 624.814 42.8281 623.119Z" fill="#00342B"></path><path d="M56 563.927C56 580.266 43.7521 593.06 28.0385 593.06C12.3243 593.06 0 580.266 0 563.927C0 547.588 12.3243 534.794 28.0385 534.794C43.7521 534.794 56 547.588 56 563.927ZM9.0891 563.927C9.0891 574.717 17.4082 583.195 28.0385 583.195C38.6682 583.195 46.9103 574.717 46.9103 563.927C46.9103 553.137 38.6682 544.659 28.0385 544.659C17.4082 544.659 9.0891 553.137 9.0891 563.927Z" fill="#00342B"></path><path d="M43.9837 503.887L39.2848 495.641C44.5997 492.867 46.9103 486.47 46.9103 480.535C46.9103 474.677 44.1377 469.591 39.7468 469.591C34.047 469.591 32.5064 475.756 32.0438 479.071L31.5047 482.77C30.0411 492.713 25.7279 501.344 15.5596 501.344C6.47046 501.344 0 492.713 0 482.385C0 474.523 3.08123 466.508 9.5517 462.346L14.4815 470.516C10.5527 473.059 9.0891 478.299 9.0891 482.308C9.0891 487.317 11.7083 491.479 15.4826 491.479C20.4124 491.479 21.645 486.161 22.4156 481.459L23.0317 477.529C24.2643 469.668 28.2695 459.726 39.6698 459.726C49.5295 459.726 56 469.36 56 480.689C56 490.169 52.1488 499.495 43.9837 503.887Z" fill="#00342B"></path><path d="M1.54053 407.702L1.54053 398.531H54.4593V407.702H32.2753C31.3506 411.864 30.7346 416.719 30.7346 422.191C30.7346 427.664 31.3506 432.519 32.2753 436.681H54.4593V445.775H1.54053L1.54053 436.681H24.1872C23.3396 432.211 22.8776 427.355 22.8776 422.191C22.8776 417.028 23.3396 412.095 24.1872 407.702H1.54053Z" fill="#00342B"></path><path d="M45.9862 373.234V342.868H54.4593V382.483H1.54053L1.54053 343.638H10.0136L10.0136 373.234H23.4166L23.4166 347.723H31.8897L31.8897 373.234H45.9862Z" fill="#00342B"></path><path d="M54.4593 270.744L54.4593 281.226L41.0564 287.392C40.1317 291.554 39.5157 296.409 39.5157 301.882C39.5157 307.507 40.1318 312.44 41.1334 316.679L54.4593 322.845V333.018L1.54053 308.355L1.54053 295.408L54.4593 270.744ZM32.3523 291.4L9.32062 302.036L32.3523 312.672C31.8897 309.28 31.6587 305.658 31.6587 301.882C31.6587 298.259 31.8897 294.714 32.3523 291.4Z" fill="#00342B"></path><path d="M46.2172 211.785H55.5379C53.5347 225.811 41.2874 233.441 33.8153 235.754V250.628H54.4593V259.877H1.54053L1.54053 228.509C1.54053 219.414 8.473 212.324 17.2541 212.324C25.3422 212.324 31.9667 217.951 33.5073 225.657C37.2821 223.961 44.3686 219.723 46.2172 211.785ZM25.3422 250.628L25.3422 229.279C25.3422 225.272 21.9529 222.189 17.7167 222.189C13.4029 222.189 10.0136 225.272 10.0136 229.279L10.0136 250.628H25.3422Z" fill="#00342B"></path><path d="M54.4593 195.213H1.54053L1.54053 182.727L30.8886 163.538L1.54053 145.425L1.54053 133.016H54.4593L54.4593 142.265H12.9408L40.8254 159.452V168.084L12.4012 186.196H54.4593V195.213Z" fill="#00342B"></path><path d="M54.4593 59.2691L54.4593 69.7506L41.0564 75.9164C40.1317 80.078 39.5157 84.9329 39.5157 90.4054C39.5157 96.0319 40.1318 100.964 41.1334 105.204L54.4593 111.37V121.543L1.54053 96.8794L1.54053 83.9313L54.4593 59.2691ZM32.3523 79.9239L9.32062 90.5594L32.3523 101.195C31.8897 97.8039 31.6587 94.1817 31.6587 90.4054C31.6587 86.7831 31.8897 83.2379 32.3523 79.9239Z" fill="#00342B"></path><path d="M54.4593 48.4011H1.54053L1.54053 36.8399L41.7494 9.09468H1.54053L1.54053 -3.8147e-06H54.4593V11.5601L13.6339 39.3064H54.4593V48.4011Z" fill="#00342B"></path></g></g><defs><clipPath id="clip0_48_3214"><rect width="56" height="721" fill="white"></rect></clipPath><clipPath id="clip1_48_3214"><rect width="56" height="721" fill="white"></rect></clipPath></defs></g></svg>